<svg viewBox="0 0 512 512" fill="none" xmlns="http://www.w3.org/2000/svg">
  <circle cx="256" cy="256" r="256" fill="#1c1917"/>
  <g transform="translate(26.0,133.3) scale(0.511111) translate(-200,-100)">
    <path d="M700.3 548 c-8.3 -1.8 -14.5 -5 -15.2 -8 -0.3 -1.2 -0.6 -4.7 -0.7 -7.8 l-0.3 -5.5 -5.3 -1.7 c-4 -1.2 -6.5 -3.1 -9.9 -6.9 -5.1 -5.7 -10.2 -8.6 -30.8 -17.7 -17.3 -7.7 -20.6 -9.5 -22.5 -13.3 -2.3 -4.3 -1.9 -14.7 0.5 -21.4 2.3 -5.7 2.8 -11.9 1.5 -17.3 -0.9 -4.6 -2.6 -4.1 -2.6 0.8 l0 4 -8.4 4.1 c-12.7 6 -19.2 7.5 -43.2 9.3 -11.2 0.8 -13.9 1.4 -17.6 3.6 -5.8 3.4 -12.3 11.6 -21.1 26.4 -4 6.8 -8.7 13.8 -10.3 15.8 -3.1 3.5 -9.6 7.5 -12.2 7.5 -0.7 0 -5.2 1.9 -10 4.3 -8.3 4.1 -9.2 4.3 -19.7 4.7 -7.8 0.3 -11.5 0.1 -12.5 -0.8 -1.1 -0.9 -1.5 -3.5 -1.5 -9.2 0 -6.8 0.4 -8.8 3.1 -14.1 1.7 -3.4 5 -7.8 7.2 -9.8 3.6 -3.2 4.8 -3.7 9.3 -3.7 2.9 0 5.9 0.4 7 1 1.4 0.7 2 0.4 3 -1.5 0.6 -1.3 3.5 -4.3 6.3 -6.5 2.8 -2.3 6.2 -5.4 7.7 -7.1 2.9 -3.5 9.5 -17.4 12.3 -25.8 4.7 -14.3 6.5 -16.1 19.5 -18 12.1 -1.7 18.5 -4.7 21.3 -9.5 1.9 -3.3 1.9 -4.2 0.8 -15.9 -2.1 -21.9 -1.1 -37.3 3.4 -48.1 0.9 -2 1.2 -3.7 0.8 -3.7 -2.4 0 -8.9 5.3 -16.7 13.3 -23.4 24 -33.9 29.7 -55.2 29.7 -9.9 0 -11.8 -1.1 -11.3 -6.9 l0.4 -4.2 -7.9 -0.4 c-15.9 -0.9 -30.9 -12.1 -39.3 -29 -3.1 -6.1 -3.6 -8.2 -3.3 -12.9 l0.3 -5.5 4 -0.3 c3.1 -0.3 6.2 0.7 13 3.9 4.9 2.4 12 4.8 15.6 5.4 11.4 1.9 23.2 -1.9 50.3 -16.4 14 -7.5 18.4 -8.7 34 -9.3 15.2 -0.5 24.8 0.7 32.6 4.3 4.6 2.1 5.4 2.3 7.2 0.9 4.2 -3.2 14 -7.6 21.6 -9.6 8.6 -2.5 27.4 -3.3 37.8 -1.6 5.1 0.7 5.3 0.6 5.9 -1.8 0.9 -3.7 4.1 -4.9 11.5 -4.4 l6.5 0.4 0 -5.4 c0 -6.3 3.3 -17.1 11.3 -37.1 3.3 -8.2 9.9 -25 14.8 -37.3 4.9 -12.4 12.6 -31.6 17 -42.8 7.5 -18.7 8.1 -20.6 7.1 -24 -1.3 -5 -1.3 -19.2 0.1 -26 4.1 -19.3 20.7 -31.5 42.9 -31.5 12.7 0 23.5 4 30.7 11.4 4.3 4.4 10.2 15.2 10.2 18.6 0 1.7 0.5 1.9 4.4 1.3 16.7 -2.6 18.1 -2.1 18.1 5.2 0 5.1 0.1 5.1 -11.5 7.4 l-8 1.6 5.6 4.3 c6.7 5.1 11.8 12.7 14.9 21.8 1.9 5.6 2.4 8.8 2.4 20.5 0.1 22.7 -4.6 35.2 -18.2 48.6 -13.8 13.6 -26.6 18.8 -46.4 18.9 l-9.4 0 3.2 8 c1.7 4.3 3.7 8.5 4.2 9.2 0.7 0.8 4.9 1.2 14.9 1.2 l13.9 0 -0.3 -5.5 -0.4 -5.5 7.3 -0.7 c6.9 -0.7 8.7 -1.5 6.2 -3.1 -0.5 -0.3 -1 -2.9 -1 -5.5 l0 -4.9 12.7 -5 12.6 -5.1 -1.9 -2.5 c-1.4 -1.7 -1.8 -3.7 -1.6 -7.1 l0.3 -4.7 12.3 -0.1 c6.8 0 15.8 -0.6 20 -1.2 4.2 -0.6 10.7 -1.2 14.5 -1.2 l6.9 0 0.3 -4.9 c0.3 -4.7 0.4 -4.8 3.9 -5.1 2.9 -0.2 4.7 0.6 9 3.9 l5.3 4.1 0 -5.6 0 -5.6 3.6 0 c6.7 0 16.6 11.7 18.4 21.7 0.5 3 1.2 3.8 3.5 4.2 4.1 0.8 19.7 14.9 23.6 21.4 1.8 3 5.8 8.5 8.8 12.3 3.1 3.8 5.5 7.8 5.5 8.9 0 1.5 0.6 2.1 2.4 2.1 2.4 0 17.8 14.6 20.1 19.1 1.4 3 1.4 18.5 -0.1 22.9 -2 6.1 -4.7 9 -9.6 10.2 -2.5 0.6 -4.5 1.5 -4.5 2 0 3.7 -18.5 5.5 -24.5 2.5 -1.6 -0.8 -5.2 -4.1 -8 -7.3 l-5.1 -5.8 -5 1.6 c-8.9 3 -22.9 4.8 -36.1 4.8 l-13 0 -4.4 8 c-2.5 4.3 -9 15.8 -14.5 25.3 -8.5 14.7 -10.2 18.4 -11.2 24.3 -1.2 8.1 -4.6 19.2 -7.4 24.7 -1 2.1 -1.6 4.2 -1.4 4.7 0.7 1.1 23.4 9.6 34.4 12.8 10.4 3.1 12.1 4.2 25.1 18 5.6 5.8 15.7 15.5 22.3 21.3 8.9 7.9 12.7 11.9 14.6 15.9 1.5 3 5.3 8.2 8.6 11.6 8.3 8.9 10.7 14.4 10.7 23.9 0 7.1 -0.2 7.7 -2.6 9 -3.4 1.7 -20.2 0.9 -26.9 -1.4 -7.1 -2.4 -8.9 -5.3 -8.9 -13.9 l0 -7.1 -3.8 -1.5 c-7.6 -2.9 -9 -4.1 -12.6 -10.5 -2.1 -3.9 -6.7 -9.4 -11.8 -14.3 -7 -6.7 -9.5 -8.4 -16 -10.8 -4.2 -1.5 -11.1 -4.6 -15.2 -6.8 -6.8 -3.4 -8.7 -3.9 -16.5 -4.3 l-8.8 -0.3 1.8 4.1 c2.6 5.6 2.6 17.1 0 22.6 -3.4 7.3 -6.8 9.5 -19.5 12.8 -6.3 1.7 -16.2 4.9 -21.7 7.2 -13 5.2 -21.6 5.6 -30.5 1.4 -3.1 -1.4 -9.1 -4 -13.3 -5.6 -4.2 -1.6 -9.4 -4.3 -11.5 -6.1 -3.7 -3 -3.9 -3.5 -3.9 -9.1 0 -5.5 0.3 -6.1 3 -8.2 8.9 -6.2 22.7 -9.7 29.1 -7.3 1.7 0.7 3.5 2.5 4.4 4.7 0.8 2.1 2.1 3.6 3.3 3.6 3.6 0 15.2 -2.1 20 -3.7 l4.9 -1.6 -4.9 -4.2 c-2.7 -2.4 -9.5 -8.5 -15.1 -13.5 l-10.2 -9.3 -6.7 0.9 c-3.7 0.4 -12.6 0.6 -20 0.3 -18.9 -0.7 -39 -6 -62.5 -16.6 -0.6 -0.3 -1.9 1.4 -2.9 3.9 -1 2.4 -5 9.2 -8.9 15.2 -3.9 5.9 -7.1 11.6 -7.1 12.5 0 2.6 7.1 7.2 21.5 14.2 7.1 3.5 14.7 7.7 17.2 9.3 6.2 4.2 21.4 25 24.5 33.5 2.8 7.9 3.1 15.6 0.7 17.8 -1.9 2 -11.5 2 -20.5 0.1z m20 -111.2 c-0.4 -3 -0.8 -8.4 -0.8 -12.1 -0.2 -9.6 -0.8 -11.3 -4.4 -11.3 l-3 0 0.7 5.4 c1.2 9.9 3.4 20.4 4.6 21.8 2.6 3.1 3.7 1.6 2.9 -3.9z m10.2 -39.4 l-0.1 -4.9 -1.8 4.1 c-1.9 4.2 -1.8 4.5 1.8 5.5 0.1 0.1 0.2 -2 0.1 -4.7z m-30.1 -9.5 c0.3 -0.6 -0.4 -1 -1.6 -1 -1.2 0 -4.1 -1.8 -6.5 -4.4 -4.6 -4.6 -6.7 -9.5 -6.7 -16.6 0 -7.3 -0.7 -8.2 -6.4 -9.6 -7.8 -1.9 -18.6 -8 -22.8 -12.6 -1.9 -2.3 -3.8 -3.9 -4 -3.7 -0.7 0.7 -3.6 13.2 -4.5 19.9 -1.8 12.7 1.6 18.4 13.2 21.9 5 1.5 27.3 5.6 38.1 7.1 0.4 0.1 1 -0.3 1.3 -0.9z m41.2 -6 c8.3 -6.7 11.6 -16.1 11.3 -32.7 l-0.1 -8.8 -0.6 6.7 c-0.7 6.9 -3.1 12.3 -13 29.9 -2.5 4.4 -4.5 8.2 -4.5 8.5 0 1.3 2.3 0.2 7 -3.5z m-29.4 -17.7 c4.8 -9.6 5.1 -10.4 3.3 -11.5 -1 -0.6 -8.8 -4.3 -17.2 -8.3 -8.5 -4 -17.9 -9 -21 -11.1 -3.1 -2 -6 -3.8 -6.7 -3.8 -0.6 0 -2.8 -0.9 -4.9 -2 l-3.9 -2 1.5 2.8 c3.8 7.5 11.1 12.4 23.2 16.1 9.7 2.9 10.1 3.4 10.1 11.5 0 2.3 0.6 6.3 1.4 9.1 1.5 5 6.3 11.2 8 10.1 0.5 -0.3 3.2 -5.2 6 -10.8z m37.8 -34.2 c-1.8 -2.1 -2.5 -1 -0.8 1.5 0.7 1.2 1.4 1.7 1.6 1.1 0.2 -0.6 -0.2 -1.7 -0.8 -2.7z m153 -2.5 l5.1 -0.8 -5.2 -0.1 c-2.9 0 -7.4 -0.7 -9.9 -1.5 -4.2 -1.2 -4.8 -1.2 -6.2 0.3 -0.9 1 -1.6 2.3 -1.6 2.8 0 1.1 9.1 0.8 17.9 -0.6z m-163.2 -9.7 c3.1 -1.7 12.5 -1.9 16.8 -0.4 2.8 1 4.4 0.7 12.9 -2.7 5.3 -2 11.4 -4.1 13.3 -4.5 6.3 -1.2 1.7 -1.9 -6.7 -0.9 -4.5 0.5 -13.3 0.8 -19.5 0.6 -9.7 -0.3 -11.8 -0.6 -13.7 -2.4 -2.8 -2.5 -6 -8.9 -9.3 -18.1 -1.3 -3.9 -2.8 -7 -3.1 -7 -0.6 0 -9.6 22.1 -10.3 25.3 -0.3 1.5 13.2 11.5 15.6 11.5 0.8 0 2.7 -0.6 4.1 -1.4z m50.1 -1.5 c0 -1.6 -0.2 -3.1 -0.4 -3.1 -0.2 0 -0.6 1.4 -0.8 3.1 -0.3 1.7 -0.1 3.1 0.4 3.1 0.4 0 0.8 -1.3 0.8 -3.1z m104.1 -40.6 c-0.3 -1 -0.5 -0.2 -0.5 1.7 0 1.9 0.2 2.8 0.5 1.8 0.2 -1 0.2 -2.7 0 -3.6z m-124.2 -53.8 c13.7 -8.1 17.3 -23.3 7.7 -32 -3 -2.8 -9.7 -6.2 -13.1 -6.7 -2.4 -0.4 -2.9 0.6 -10.5 19.9 -4.5 11.2 -7.9 20.5 -7.7 20.7 1 1 11.9 2 15.3 1.4 2 -0.3 5.7 -1.8 8.3 -3.3z" fill="#f59e0b"/>
    <path d="M719.3 445.8 c-5.8 -1.5 -6.7 -3.2 -8.8 -18.7 l-1.7 -12.3 -6.1 -2.4 c-10.2 -4 -11.9 -7.5 -7.9 -16.2 l1.9 -4.4 -2.3 -0.4 c-1.2 -0.3 -8.7 -1.5 -16.5 -2.7 -31.7 -4.9 -36.3 -9.2 -33.5 -31.2 1.1 -8.3 5.3 -24.7 7.2 -28 0.7 -1.1 1.4 -0.2 3.2 3.8 3.8 8.7 14.4 16.5 27.3 19.6 5.7 1.5 6.4 2.5 6.4 9.7 0 6.2 1.8 11.5 5.3 15.5 4.6 5.2 6.7 6 8.1 3.4 0.9 -1.8 0.6 -2.7 -2.1 -5.5 -3.6 -3.7 -6.1 -10.9 -6.1 -17.3 0 -8.1 -0.4 -8.6 -10.1 -11.5 -12.8 -3.8 -19.4 -8.6 -23.7 -17 -2.4 -4.5 -2.6 -8.8 -0.4 -9.6 0.8 -0.3 3.7 0.6 6.3 2 2.7 1.4 5.6 2.8 6.4 2.9 0.8 0.2 4.3 2.1 7.6 4.3 3.4 2.1 13.2 7.4 22 11.5 8.8 4.2 17.1 8.4 18.4 9.4 l2.4 1.7 -11.3 22.5 c-14 27.9 -13.9 27.5 -11.6 29.6 1.9 1.7 12.7 5.7 15.5 5.7 1.1 0 2.3 -1.7 3.5 -5.6 1 -3.3 2.4 -5.6 3.2 -5.6 0.7 0 1.7 -1 2 -2.3 0.4 -1.3 4.5 -9.2 9.2 -17.7 13.9 -25.3 15.9 -29.6 15.9 -35.1 0 -3.7 -0.7 -6.1 -3.1 -9.7 -1.6 -2.7 -3.6 -4.8 -4.2 -4.8 -2.5 0 1.3 -3.1 5 -4.1 5.2 -1.4 7 0.5 8.4 9.5 1.7 9.9 0.8 31.3 -1.6 38.1 -2.3 6.3 -10.1 14.3 -15.8 16 l-4.1 1.2 0 6.2 0 6.2 4.7 3.1 c7.2 4.8 10.3 11.5 7.6 15.9 -1.2 2 -8.8 1.8 -16.7 -0.5 -3.3 -0.9 -6.2 -1.4 -6.7 -1.1 -0.6 0.6 1.2 18.6 2.5 24.5 0.7 3.1 0.7 3.1 -5.7 1.4z m22.5 -29.2 c0 -1.8 -14.4 -12.5 -17 -12.5 -1 0 -4.1 8 -3.3 8.7 0.2 0.2 3.3 1.2 7 2.4 7 2.1 13.3 2.9 13.3 1.4z" fill="white"/>
  <path d="M816.9 429.3 c-7 -3.2 -9.1 -5.5 -6.5 -7.1 0.5 -0.3 4.9 0.8 9.8 2.7 6.4 2.4 8.7 3.6 8.2 4.6 -0.3 0.8 -0.5 1.9 -0.5 2.5 0 1.6 -3.5 0.8 -10.9 -2.7z" fill="white"/>
  <path d="M817.6 394.8 c-1.9 -8.1 -5.4 -14.9 -11.3 -21.8 -2.8 -3.3 -5.1 -6.3 -5.1 -6.8 0 -3.1 4.9 -0.3 11.1 6.2 4.4 4.7 8.7 15 8.8 21.2 0.1 7.6 -1.8 8.2 -3.5 1.1z" fill="white"/>
  <path d="M953.2 334.5 c-4.1 -3.8 -6 -8.1 -3.7 -8.1 2.6 0 12.4 9.1 11.7 10.8 -0.9 2.5 -3.3 1.6 -8 -2.8z" fill="white"/>
  <path d="M963.1 323.3 c-2.5 -4 -0.8 -8.2 3.1 -8.2 1.5 0 1.8 0.9 1.8 5.1 0 4.2 -0.3 5.1 -1.8 5.1 -0.9 0 -2.4 -0.9 -3.1 -2z" fill="white"/>
  <path d="M751.6 228.5 c-5.2 -0.8 -10.7 -2.4 -10.7 -3.2 0 -0.4 4.1 -10.8 9 -23.2 l9 -22.5 5.1 0.1 c5.3 0.1 12.4 3.1 16.6 7 8.1 7.3 8 22.4 -0.2 31.9 -6.5 7.6 -18 11.7 -28.8 9.9z" fill="white"/>
  <path d="M922.8 281.5 c-1.3 -1.1 -3.6 -2.1 -4.9 -2.4 -1.7 -0.2 -2.6 -0.9 -2.6 -2.4 0 -3.7 8 -3.3 11.8 0.5 2.6 2.6 2.6 3.8 0.1 5 -1.4 0.8 -2.6 0.6 -4.4 -0.8z" fill="white"/>
  <path d="M762.8 147.1 c-0.9 -2.9 -3.6 -17.5 -3.6 -19.7 0 -1.9 0.7 -2.4 4.7 -3 8.9 -1.2 11.4 -0.8 13.6 2 4.3 5.4 1.7 10.9 -5.7 12.8 -4.5 1.2 -4.6 1.3 -4.1 4.6 0.4 2.4 0.1 3.5 -1 3.9 -2.4 0.9 -3.4 0.7 -3.9 -0.6z m10.1 -13.7 c2.6 -2.6 0.4 -5.5 -4 -5.5 -3.3 0 -3.6 0.3 -3.6 2.9 0 1.6 0.3 3.3 0.7 3.6 1.2 1.3 5.2 0.7 6.9 -0.9z" fill="white"/>
  </g>
</svg>
